
<svg width="1444" height="960" viewBox="0 0 1444 960" fill="none" xmlns="http://www.w3.org/2000/svg">
<path d="M-8.55713 837.211C-47.5 837.528 -82.5 837.211 -137.533 837.528C-159 841 -164.614 849.603 -172.397 862.644C-182.329 879.267 -179.285 889.741 -182.766 907.196C-188.764 937.24 -212.009 954.148 -240.227 956.073C-271.52 958.212 -320.693 958.513 -351.805 956.057C-430.319 949.853 -424.751 840.832 -359.264 833.994C-320.738 829.969 -276.214 837.282 -237.236 834.034C-212.694 831.99 -191.386 815.589 -185.78 789.926C-182.826 776.386 -184.838 765.547 -179.578 752.086C-172.202 733.197 -152.829 717.176 -133.359 715.148C-93.9585 711.036 -47.9876 719.268 -8.55713 714.934C41.136 709.475 60.1314 644.823 21.0099 611.316C3.49863 596.318 -9.10733 602.046 -28.3968 596.754C-74.7595 584.037 -86.1975 519.884 -48.1534 489.459C-27.146 472.663 -8.90409 481.774 11.4705 471.379C29.7503 462.054 40.5479 442.254 42.1303 421.234C44.6168 388.211 44.6017 330.554 42.1303 297.523C40.126 270.664 21.6126 247.346 -4.02136 243.083L-350.313 242.988C-425.836 237.815 -430.651 135.464 -359.264 120.91H-6.88439C-0.381716 122.296 7.00244 123.96 12.9777 126.947C63.1832 152.039 25.7119 220.566 84.2134 237.395C203.424 242.703 323.667 238.472 443.239 239.55C511.046 232.102 507.49 130.457 446.419 124.087C408.39 120.117 364.461 127.177 325.897 124.134C250.992 118.232 248.084 13.7341 319.877 2C360.999 2.07129 404.499 2 444.912 2.07129C461.308 3.79852 478.247 14.4869 486.965 29.1367C503.534 56.9783 488.238 83.2592 516.449 107.456C541.774 129.173 569.329 112.281 594.059 139.885C615.971 164.344 602.845 193.073 620.417 216.739C630.325 230.09 645.666 238.607 661.738 239.811C736.44 234.4 820.033 246.855 893.695 239.732C923.066 236.888 943.418 214.236 945.731 183.557C948.821 142.548 941.866 95.6985 945.694 55.164C952.189 -13.7192 1055.21 -19.0038 1061.62 61.5104L1061.59 426.004C1062.83 445.011 1075.38 462.545 1091.22 470.88C1114.13 482.931 1134.52 471.775 1156.57 494.031C1181.56 519.266 1166.99 548.779 1185.17 573.27C1195.18 586.739 1210.31 595.003 1226.49 596.342C1257.87 598.94 1312.7 598.956 1344.07 596.342C1372.19 593.996 1393.42 573.927 1397.05 544.343C1402.77 463.48 1390.89 374.242 1397.42 294.362C1398.99 275.164 1410.83 256.743 1426.59 247.409C1450.2 233.425 1473.15 246.11 1495.43 221.596C1514.39 200.743 1506.02 181.283 1514.21 158.956C1521.64 138.697 1541.66 122.716 1562.33 120.846C1639.12 125.751 1722.9 114.516 1798.88 120.846C1868.36 126.638 1870.92 237.133 1794.36 242.981C1718.46 248.78 1635.96 238.52 1559.36 242.909C1535.49 247.299 1517.59 266.156 1513.42 291.24C1509.23 371.263 1519.04 457.648 1513.49 536.927C1512.06 557.336 1504.53 576.138 1488.31 588.078C1464.69 605.469 1437.95 591.889 1415.47 616.023C1395.24 637.74 1404.55 659.908 1394.02 683.773C1384.3 705.775 1363.42 716.638 1341.05 718.365C1265.22 724.244 1182.71 713.73 1106.19 718.436C1043.9 733.007 1047.6 824.669 1110.76 833.78L1461.06 833.535C1482.96 830.587 1501.86 814.987 1507.83 792.43C1510.48 782.399 1509.47 774.88 1510.82 765.46C1514.36 740.47 1536.97 717.644 1560.89 715.148C1599.42 711.123 1643.94 715.436 1682.92 712.188M896.309 833.535C1002.27 821.373 889.618 612.996 993.503 596.698C1002.46 595.296 1009.6 596.35 1019.14 593.561C1062.88 580.765 1072.15 519.892 1035.9 491.044C1012.93 472.758 985.124 487.804 961.449 461.626C940.035 437.952 951.194 414.816 938.392 390.809C929.855 374.805 914.446 363.3 896.776 361.7C856.359 358.039 811.104 364.608 770.151 361.692C753.371 364.037 737.683 374.63 729.5 390.231C720.722 406.964 724.308 420.085 719.674 436.937C712.162 464.24 689.376 478.652 663.343 480.673C587.345 486.56 502.261 477.789 425.751 478.589C406.182 473.772 389.967 458.964 383.871 438.673C380.202 426.463 381.799 416.171 378.951 404.231C373.669 382.038 353.852 363.697 332.008 361.716C290.754 357.976 244.362 364.513 202.565 361.906C187.729 365.519 173.729 374.337 165.809 388.203C150.619 414.8 164.928 441.081 136.943 465.587C114.248 485.466 93.323 474.802 71.125 488.239C25.1316 516.081 41.8591 591.794 96.9623 596.35C135.941 599.574 180.48 592.277 218.991 596.31C243.178 598.845 263.772 618.708 269.038 643.484C270.824 651.874 270.116 660.122 271.352 667.99C275.481 694.39 299.374 714.388 324.36 715.212L786.382 715.552C809.348 719.783 827.937 737.048 833.505 761.047C838.313 781.781 832.692 793.951 847.732 812.634C859.855 827.695 877.449 835.706 896.294 833.543L896.309 833.535ZM496.248 300.391C496.248 332.495 520.985 358.523 551.494 358.523C582.003 358.523 606.741 332.495 606.741 300.391C606.741 268.287 582.003 242.259 551.494 242.259C520.985 242.259 496.248 268.287 496.248 300.391Z" stroke="#E8E3D5" stroke-width="3"/>
</svg>
